<svg xmlns="http://www.w3.org/2000/svg" width="640" height="360" viewBox="0 0 640 360" role="img" aria-label="JWT Authentication reference app cover">
  <defs>
    <linearGradient id="bg" x1="0" y1="0" x2="1" y2="1">
      <stop offset="0" stop-color="#0B1220"/><stop offset="1" stop-color="#111C32"/>
    </linearGradient>
    <linearGradient id="ac" x1="0" y1="0" x2="1" y2="1">
      <stop offset="0" stop-color="#3B82F6"/><stop offset="1" stop-color="#2563EB"/>
    </linearGradient>
  </defs>
  <rect width="640" height="360" rx="20" fill="url(#bg)"/>
  <g fill="none" stroke="#1E293B" stroke-width="1"><path d="M0 60h640M0 120h640M0 180h640M0 240h640M0 300h640"/></g>
  <g transform="translate(80,96)" fill="none" stroke="url(#ac)" stroke-width="12" stroke-linecap="round" stroke-linejoin="round">
    <path d="M70 0 8 26v44c0 42 30 66 62 80 32-14 62-38 62-80V26z"/>
    <path d="M44 70l20 20 38-40"/>
  </g>
  <g font-family="monospace" font-size="13">
    <rect x="300" y="120" width="280" height="24" rx="6" fill="#15294A"/><text x="312" y="137" fill="#60A5FA">eyJhbGciOiJIUzI1NiIs…</text>
    <rect x="300" y="156" width="220" height="24" rx="6" fill="#10341F"/><text x="312" y="173" fill="#34D399">.payload.signature</text>
  </g>
  <text x="40" y="320" font-family="Inter,Arial,sans-serif" font-size="20" font-weight="700" fill="#E2E8F0">JWT Authentication</text>
  <text x="300" y="210" font-family="Inter,Arial,sans-serif" font-size="14" fill="#93A4C2">Sessions · refresh tokens · protected routes</text>
</svg>
