<svg xmlns="http://www.w3.org/2000/svg" width="640" height="360" viewBox="0 0 640 360" role="img" aria-label="REST API reference app cover">
  <defs>
    <linearGradient id="bg" x1="0" y1="0" x2="1" y2="1">
      <stop offset="0" stop-color="#0B1220"/><stop offset="1" stop-color="#111C32"/>
    </linearGradient>
    <linearGradient id="ac" x1="0" y1="0" x2="1" y2="1">
      <stop offset="0" stop-color="#3B82F6"/><stop offset="1" stop-color="#2563EB"/>
    </linearGradient>
  </defs>
  <rect width="640" height="360" rx="20" fill="url(#bg)"/>
  <g fill="none" stroke="#1E293B" stroke-width="1">
    <path d="M0 60h640M0 120h640M0 180h640M0 240h640M0 300h640"/>
  </g>
  <rect x="40" y="48" width="360" height="22" rx="6" fill="#1E2A44"/>
  <g font-family="monospace" font-size="15">
    <rect x="40" y="96" width="60" height="26" rx="6" fill="#10341F"/><text x="52" y="114" fill="#34D399">GET</text>
    <text x="116" y="114" fill="#93A4C2">/api/items</text>
    <rect x="40" y="138" width="60" height="26" rx="6" fill="#15294A"/><text x="50" y="156" fill="#60A5FA">POST</text>
    <text x="116" y="156" fill="#93A4C2">/api/items</text>
    <rect x="40" y="180" width="60" height="26" rx="6" fill="#3A2417"/><text x="48" y="198" fill="#FBBF24">PUT</text>
    <text x="116" y="198" fill="#93A4C2">/api/items/:id</text>
  </g>
  <g transform="translate(470,150)" fill="none" stroke="url(#ac)" stroke-width="10" stroke-linecap="round" stroke-linejoin="round">
    <path d="M30 0 0 40 30 80"/><path d="M90 0 120 40 90 80"/>
  </g>
  <text x="40" y="320" font-family="Inter,Arial,sans-serif" font-size="20" font-weight="700" fill="#E2E8F0">REST API</text>
  <text x="40" y="60" font-family="monospace" font-size="13" fill="#64748B">OpenAPI 3.1 · controllers · repositories</text>
</svg>
